<svg width="154" height="222" viewBox="0 0 154 222" fill="none" xmlns="http://www.w3.org/2000/svg">
<path d="M106.4 6.87697C119.3 -3.02303 134.7 0.676977 134.7 0.676977C134.7 0.676977 132.1 18.977 119.2 28.877C106.3 38.777 87.8 36.377 87.8 36.377C87.8 36.377 91.8 30.377 95.8 22.477C98.2 17.877 101.6 10.477 106.4 6.87697Z" fill="white"/>
<path d="M75.3 21.777C69.3 17.177 62.1 18.8769 62.1 18.8769C62.1 18.8769 63.3 27.4769 69.3 32.0769C75.3 36.6769 83.9 35.5769 83.9 35.5769C83.9 35.5769 82 32.7769 80.2 29.0769C79.1 26.8769 77.5 23.477 75.3 21.777Z" fill="white"/>
<path d="M76.8 65.4769C78.6 65.4769 80.3 65.5769 82.1 65.6769C80.5 56.2769 80.8 46.5769 85.7 38.1769C77.2 44.9769 73.1 55.3769 71 65.7769C72.9 65.5769 74.8 65.4769 76.8 65.4769Z" fill="white"/>
<path d="M76.8 68.577C34.4 68.577 0 102.877 0 145.077C0 187.377 34.4 221.577 76.8 221.577C119.2 221.577 153.6 187.277 153.6 145.077C153.5 102.877 119.2 68.577 76.8 68.577ZM108.1 176.377L76.7 154.877L45.3 176.377L66.9 145.077L45.3 113.777L76.7 135.277L108.1 113.777L86.5 145.077L108.1 176.377Z" fill="white"/>
</svg>
